<?xml version="1.0" encoding="UTF-8" standalone="no"?>
<!-- Generator: Adobe Illustrator 27.0.0, SVG Export Plug-In . SVG Version: 6.00 Build 0)  -->

<svg
   version="1.1"
   x="0px"
   y="0px"
   viewBox="0 0 1500 1000"
   xml:space="preserve"
   id="svg63"
   sodipodi:docname="lord-of-the-rings-seeklogo2.svg"
   width="1500"
   height="1000"
   inkscape:version="1.4.2 (ebf0e940, 2025-05-08)"
   xmlns:inkscape="http://www.inkscape.org/namespaces/inkscape"
   xmlns:sodipodi="http://sodipodi.sourceforge.net/DTD/sodipodi-0.dtd"
   xmlns="http://www.w3.org/2000/svg"
   xmlns:svg="http://www.w3.org/2000/svg"><defs
   id="defs63" /><sodipodi:namedview
   id="namedview63"
   pagecolor="#ffffff"
   bordercolor="#000000"
   borderopacity="0.25"
   inkscape:showpageshadow="2"
   inkscape:pageopacity="0.0"
   inkscape:pagecheckerboard="0"
   inkscape:deskcolor="#d1d1d1"
   inkscape:zoom="0.33490752"
   inkscape:cx="746.47473"
   inkscape:cy="985.34664"
   inkscape:window-width="1728"
   inkscape:window-height="961"
   inkscape:window-x="0"
   inkscape:window-y="33"
   inkscape:window-maximized="0"
   inkscape:current-layer="svg63" />
<style
   type="text/css"
   id="style1">
	.st0{fill-rule:evenodd;clip-rule:evenodd;}
</style>
<g
   id="Layer_1"
   transform="translate(-252.7591,-645.91186)">
	<g
   id="g57">
		<path
   d="m 550.8,1301.1 c 11.7,-15.9 17.1,-17.6 33.9,-10.7 82.8,33.8 169.2,52.6 257.7,62.9 75.3,8.8 150.9,11.3 226.4,7.1 141.3,-7.8 277.8,-36.5 404.5,-102.9 1.8,-1 3.8,-1.7 7.1,-3 -0.3,46.2 5.8,90.7 7.8,135.4 0.5,11.6 -6.5,20 -13.4,28 -4,4.6 -9.5,4.3 -14.6,1.2 -15.3,-9.3 -14.2,-33.5 2.1,-43.1 3.2,3.9 -1,14.4 9.6,11.7 5.4,-1.4 6.7,-6 5.5,-10.5 -2.2,-8.2 -8.6,-11.1 -16.5,-9.9 -9.8,1.4 -19.2,13.9 -20.4,27 -1.1,11.6 -1,23.3 5,33.7 3.3,5.8 1.8,9.4 -2.2,14 -14.5,16.1 -34,20 -53.8,23.3 -5.7,0.9 -6,-2.3 -4.6,-6.3 3.6,-10.6 4.5,-21.6 5.3,-32.7 0.6,-7.8 4.6,-15.2 13.9,-15 9.8,0.2 9.6,8.7 10.5,15.7 1,8 -1.3,15.7 -3.8,24.6 14.2,-10.7 17.4,-43.2 6.6,-54.6 -5.6,-5.9 -11.6,-6.2 -17.2,-0.1 -2.4,2.6 -3.8,6 -6,8.8 -2.8,3.4 -7.3,11.2 -7.6,10.1 -2.2,-8.6 -19.4,-3.1 -15,-18.4 7.2,-25 9.1,-51.6 22.3,-74.9 3.9,-6.8 9.4,-11 17.5,-8.5 7.2,2.3 12.2,7.2 13.2,15.2 0.5,3.7 0,7 -4,8.9 -2.6,1.2 -4.9,1.9 -7.4,0 -3.7,-3 -0.1,-5.5 0.6,-8.2 1.3,-5.4 0.4,-10.2 -5.9,-11.3 -6.5,-1.1 -8.3,4 -9.2,9 -1.6,9 6,19 15.2,20.2 10,1.3 15.9,-4.2 16.6,-15.9 0.8,-12.5 -8,-28.1 -17.7,-30.1 -13.5,-2.6 -20.8,6.2 -25.8,16.5 -13.6,27.8 -19.4,58 -23.3,88.3 -1.4,10.7 -7,17.5 -11.7,26.1 -4.1,-3.3 -1,-11.9 -7.2,-10 -10.6,3.3 -18.1,11.2 -24.1,22.2 8.8,0.4 11.8,-8.2 20.3,-8.3 0.6,23.5 -7,44.5 -17.6,64.8 0.7,0.3 1.8,1.2 2.2,0.9 27.7,-17 57.9,-26.3 89.6,-32.1 13.6,-2.5 22,-12.8 29.8,-23.1 3.8,-5 6.3,-10 14.7,-6.6 6.2,2.5 12,-2 16.1,-7.1 3.8,-4.6 7.2,-9.6 12.5,-16.8 0,28.2 0.1,53.8 0,79.3 0,6.3 -5.9,7.3 -9.9,9.7 -60,36.5 -124.7,61.2 -192.9,78 -82.6,20.4 -166.1,33.7 -251.3,36 -3.4,0.1 -6.9,0 -13.2,0 6.5,-8.8 11.7,-15.7 16.8,-22.7 8.2,-11.6 17.9,-22.5 24.1,-35.1 9.7,-19.8 25.7,-25 45.6,-24.9 22.7,0.1 45.4,-0.7 66.5,-10.8 7.1,-3.4 14.5,-6.4 20.8,-13.4 -9.7,0 -16.5,7.4 -25.5,5.6 5.7,-17.8 16.4,-31.7 31.9,-41.9 2.4,-1.6 5,-5 8.1,-2.6 1.5,1.3 1.7,4.8 1.8,7.3 0.8,16.9 -7.6,31.3 -12.3,47.1 12.7,-5.7 16.9,-17.4 19.9,-29.4 2.7,-11.1 6.9,-21 14.7,-29.3 4.1,-4.4 7.9,-10.8 15.2,-8.1 7.5,2.8 7.4,10.2 7.8,16.9 0.3,6.8 0.1,13.9 -3.6,19.3 -2.4,3.5 -4.3,22.7 -13.1,2.8 -2.1,-4.7 -6.7,-3.9 -9.7,0.1 -3.6,4.6 -4.3,9.8 -1.1,14.9 3,4.8 7.1,5.7 12.6,4.2 24,-6.5 36.7,-50.4 19.6,-68.3 -5.8,-6 -12,-7.4 -18.7,-1.3 -4.9,4.5 -9.6,9.1 -15,14.3 -3,-4.4 0.2,-15.6 -11.5,-12.3 -2.6,0.7 -1.3,-3.1 -0.7,-5 8,-27.5 19,-53.5 37.6,-75.7 6.9,-8.3 13.8,-6.5 20.3,0.4 6.5,6.8 6.6,19.2 0.6,24.1 -2.7,2.2 -5.4,3 -8.5,1 -3.6,-2.3 -4.5,-5.2 -2,-9 3.2,-4.9 6.8,-10 1.4,-15.5 -2,-2.1 -5.3,-1.4 -7.4,0.4 -5.3,4.4 -7,10.3 -5.7,16.8 1.8,8.5 6.9,14.6 15.7,16.2 8.9,1.6 12.4,-5.2 15.6,-11.7 3,-6.2 3.9,-12.8 1.9,-19.5 -2.8,-9.3 -7.9,-17.9 -17.4,-20.6 -9,-2.6 -14.3,5.8 -19.3,11.8 -18.3,22.4 -30.4,48.5 -35.5,76.5 -3.3,18 -13.1,28.1 -27.5,38.1 -1.4,-6.6 0.8,-14.7 -6.9,-17.3 -8,-2.7 -14.8,1.1 -21.1,5.6 -6.1,4.4 -10.9,9 -17.5,-0.4 -3.7,-5.3 -10.7,-3 -15.6,1 -6.8,5.6 -13.3,11.6 -20.4,17.8 -1.4,-6.1 4.5,-14.1 -1.8,-16.9 -8.6,-3.8 -15.1,5.1 -25.3,8.8 16.6,-34.7 32.1,-67.8 57.8,-94.7 2.9,-3 7.7,-4.2 11.7,-6 2.5,-1.1 5.3,-2.1 4,-5.6 -1.4,-3.7 -4.5,-4.1 -7.7,-2.6 -6.6,3 -11.5,8.2 -16.3,13.5 -21.9,23.7 -38.8,50.9 -54.1,79 -4.8,8.9 -10.6,12.1 -19.9,11.2 -15.9,-1.5 -31.9,-2.5 -47.8,-4.2 -30.9,-3.3 -58.5,6.6 -84.7,22.5 8.7,-2.6 17.3,-5.6 26.1,-7.7 9.3,-2.2 18.8,-4.1 29.3,-2.3 -6.9,7.3 -13.4,13.7 -19.3,20.7 -9.1,10.7 -10.5,23 -3,30.1 9.3,8.8 19,4.9 27.9,-1.1 7.9,-5.4 14,-11.3 22.2,0.9 6.6,9.7 17.6,2.4 28.8,0.5 -19.5,32.7 -41.2,60.5 -69.5,82.7 -2.9,2.3 -5.9,3.1 -9.8,2.9 -99.5,-4.8 -196.7,-21.7 -291,-53.8 -1.3,-0.4 -2.4,-1.1 -4.8,-2.3 24.6,-17 48.6,-33.7 69.6,-54.1 13.4,-13 26.7,-26.1 39.9,-39.3 6.5,-6.5 13.3,-10.4 23.4,-9 14,1.8 27.5,-1.2 38.5,-11 2.6,-2.3 8.5,-4.6 4.8,-8.9 -2.8,-3.3 -6.5,1.3 -8.8,3.4 -10.8,10.2 -23.1,9.8 -36.1,5.9 -4.6,-1.4 -6.1,-3.7 -2.2,-7.4 20.2,-18.6 38.1,-40 63.6,-52.1 4.4,-2.1 9.2,-3.8 13.9,-4.2 7.9,-0.6 14,3.3 16.1,11.1 2.1,7.4 0.3,14.1 -6.8,18.5 -4.1,2.6 -8,1.6 -10.6,-2 -3.4,-4.7 0.7,-5.8 4.1,-7.2 4,-1.7 6.4,-4.8 5.6,-9.4 -0.5,-2.9 -2.4,-4.8 -5,-5.7 -4.5,-1.5 -7.8,0.9 -10.6,3.9 -7.1,7.6 -7.4,20.7 -0.3,26.6 8.4,6.9 16.7,4.6 24,-2.1 5.3,-4.8 9.3,-10.7 10.7,-18 3.3,-17.7 -4.8,-27.9 -22.7,-27.3 -11.6,0.4 -22.5,2 -34.6,-0.7 -12.4,-2.8 -24.5,5.8 -34.9,13.8 -15.3,11.8 -27.2,26.8 -39.8,41.2 -4.6,5.2 -8,6.8 -15.5,5.6 -19.8,-3.1 -39.9,-4.1 -58.8,5.1 -2,1 -3.9,2 -5.7,3.3 -0.6,0.4 -0.7,1.5 -2,4.9 13.7,-4.8 26.3,-8 39.3,-6.2 3.3,0.5 8,-1.3 9.2,3.1 0.9,3.4 -3.1,5 -5.5,6.8 -13.8,10.4 -27.5,21.1 -44.5,26.2 -13.4,4.1 -16.4,1.8 -16.6,-12 -0.2,-9.4 -1.9,-18.6 -13,-20.3 -8.1,-1.2 -13.8,4.5 -15.3,12 -1.7,8.6 2.3,16 10.1,19.9 9.7,4.9 5.5,8.9 -0.1,13.1 -19.5,14.7 -59.8,7.5 -73.3,-12.9 -6.2,-9.3 -4.9,-18.6 -0.3,-27.8 6.5,-12.9 17.2,-22 30.5,-26.4 21.9,-7.2 43.3,-13.3 65.9,2 18.3,12.4 37.1,7.4 45.7,-7.7 -0.7,-0.3 -1.8,-1.1 -2.1,-0.9 -14.3,11.9 -26.3,7.2 -38.5,-4 -6.8,-6.2 -15.3,-10.4 -25.4,-16.9 27.3,-15.3 51.4,-33.8 80.6,-42 16.3,-4.6 27.8,7.4 23.2,21.7 -3.1,9.8 -15.2,14 -22.4,7.8 -2.7,-2.3 -5.2,-5.2 -3.7,-9.2 2,-5.3 5.8,-2.9 8.6,-1.3 3.5,2.1 5.7,1.5 7.9,-1.5 2.1,-2.7 2.3,-5.9 1.2,-8.9 -1.2,-3.5 -4.5,-3.8 -7.7,-3.9 -8.7,-0.1 -18,10.1 -18.1,19.8 -0.1,9.3 8.7,16.8 18.9,16 14.2,-1.1 28,-17.6 26.1,-31.9 -1.4,-10.7 -8,-16.3 -18.7,-17.4 -12.5,-1.2 -23.5,3.8 -34.4,8.9 -21.3,10 -41.6,22 -61.4,34.8 -4.7,3 -8.7,4.4 -14.6,2.3 -11.9,-4.2 -24.5,-4.3 -36.9,-2.4 -6.1,0.9 -8.2,0 -7.2,-6.4 1.3,-8.4 -5,-9.8 -10.8,-10.1 -9.6,-0.6 -19.3,-0.2 -29.3,-0.2 0.8,-6.3 10.2,-8.3 7,-13.9 -3,-5.1 -10.3,-3.9 -15.8,-4.1 -10.5,-0.4 -21,-0.1 -32.1,-0.1 6.3,-8.4 17.7,-6.6 26.7,-13.5 -25.8,-6.6 -40.3,-33.2 -68.4,-32.3 -1.4,0.1 -4.1,-0.3 -3.2,-2.9 6.9,-20 -9.9,-13.4 -18.1,-16 -2.4,-0.7 -5.2,-0.1 -7.8,-0.1 -0.1,1.5 -0.5,2.8 -0.2,3.1 12.3,9.7 12.1,12.7 -2.3,20.3 -6.6,3.6 -13.5,6.8 -20.3,9.9 -2.9,1.3 -6.3,5 -9.4,0.9 -2.7,-3.6 -1.5,-7.7 1.2,-11.1 5.9,-7.2 11.9,-14.4 17.9,-21.5 2.9,-3.4 5.8,-6.7 8.6,-10.2 4.9,-6.1 3,-9.7 -4.4,-10.7 -4.8,-0.7 -9.7,-1.1 -14.5,-1.6 -2.7,-0.3 -5.4,-0.4 -4.2,-4.6 4.4,-15.2 -7.2,-16.9 -17.1,-19.3 -5.4,-1.3 -11.2,-1 -16.7,-1.4 -0.7,-5.5 3.6,-5.4 5.9,-6.3 19.9,-7.6 40,-14.6 59.8,-22.3 5.2,-2 8.7,-1.5 13.1,2 31.7,24.8 66.5,44.3 103.4,60.1 8.8,3.8 8.4,6.9 1.4,12.3 -6.3,4.8 -12,10.4 -19.2,16.8 4.1,-0.3 6.5,-0.4 8.9,-0.6 0.1,4.6 -7.3,4.9 -5.6,12 5.6,-3 10.8,-5.7 16,-8.5 5.7,-3 19.2,-0.5 14.9,-10.6 -3.2,-8.5 -11.8,1.6 -18.2,3.7 z m 64.5,38.8 c 5.9,-6 11.9,-11.8 17.5,-18.1 1.7,-1.9 5.9,-4.2 2.1,-7.6 -2.5,-2.3 -5.2,-0.3 -6.9,1.7 -8.4,9.5 -18.7,17.3 -26.1,29.4 3.7,-0.2 6.2,-0.3 8.7,-0.4 -0.7,3 -5.2,3.6 -4.6,8.2 11.6,-2.4 20,-10.3 29.5,-16.1 2,-1.2 2.2,-3.9 1,-6 -1.6,-2.9 -3.6,-0.7 -5.5,0 -5.7,2.2 -8.9,8.7 -15.7,8.9 z m 709.4,127.4 c -8.8,2.6 -13.7,9.2 -19.5,14.9 -7.3,7.2 -13.7,5.7 -16.7,-3.9 -2.7,-8.6 -3,-17.4 -1.7,-26.3 5.9,-39.1 22.5,-74.4 38.4,-110 1.3,-2.9 4.9,-5.5 1.1,-10.7 -21.2,40.4 -40.2,80.6 -46.2,125.7 -1.5,11.5 -5,25.8 2.6,33.5 10.7,10.9 3.6,16.9 -1,25.1 -2.4,4.2 -4.6,8.6 -6.4,13.2 -6,15.3 -3.9,28.4 5.7,36.8 12.5,10.9 28.4,11.5 45.8,1.7 13.6,-7.7 21.9,-22.3 19.8,-34.9 -1.9,-11.1 -12,-18.3 -23.4,-16.6 -9.2,1.4 -16.5,11.3 -14.8,20.4 0.7,4 2.1,7.8 6.7,9.1 2.8,0.7 5.8,0.2 7,-2.3 1.7,-3.7 2.3,-7.8 -1.9,-10.6 -2.3,-1.5 -4.8,-3 -2.5,-6.1 1.8,-2.5 4.6,-2.6 7.2,-1.9 5.8,1.7 10,5 12.4,11 2.8,7 0,12.4 -4.5,16.7 -9,8.7 -19.8,11.6 -31.7,5.9 -11,-5.2 -16.7,-16.5 -14.5,-28.6 2,-11.1 6.6,-21.1 13.6,-30 8.3,-10.5 16.4,-21.3 24.5,-32.1 z m 133.4,-128.6 c 10.1,-10.6 8,-22.8 6.6,-34.9 -0.5,-4 -0.6,-9 -5.9,-8.8 -6.5,0.3 -5.1,6.3 -4.9,10.3 0.8,11.1 8.7,21.4 4.2,33.4 z m -938.8,-32 c 10.8,-1.7 18.6,-7.9 25.2,-15.4 3.1,-3.5 3.6,-8.3 -0.4,-11.8 -2.5,-2.1 -6.3,0.1 -6.8,1.9 -2.6,11 -12.5,16.3 -18,25.3 z m 518.8,130.7 c 4.6,-12.4 11.1,-23.5 17.3,-34.6 1.6,-2.9 2.4,-6.1 -1.5,-7.8 -3.1,-1.3 -5.1,1 -6.1,3.5 -5.3,12.5 -10.6,25 -9.7,38.9 z m -448.4,-91.8 c 9.7,-4.4 15.9,-12.2 21.5,-20.6 2.1,-3.1 3.8,-6.7 -0.5,-8.9 -3.5,-1.8 -7.5,-0.1 -8.6,3.7 -2.8,9.2 -9.2,16.5 -12.4,25.8 z m 454.6,99.6 c 4.8,-11.7 15,-20.3 18.8,-32.6 -13.4,6.9 -18.2,18.6 -18.8,32.6 z m -19.1,-3.1 c 7.8,-7.9 8.7,-17.6 6.9,-27.9 -0.5,-2.7 -1.8,-5.4 -5.2,-4.8 -3.8,0.7 -3.3,4.1 -2.3,6.3 3.8,8.6 2.3,17.2 0.6,26.4 z M 527.5,1316.8 c 2,-0.7 4.6,-0.7 4.9,-3.4 0.3,-2.4 -1.8,-2.6 -3.6,-2.8 -2.6,-0.3 -4.5,0.8 -4.9,3.2 -0.2,2 1.6,2.9 3.6,3 z"
   id="path1" />
		<path
   d="m 986.4,1341.3 c -114.9,1.4 -237.3,-14.5 -355.8,-54.9 -68.5,-23.4 -133.6,-53.7 -190.5,-99.2 -39.3,-31.4 -72.3,-68.5 -91.7,-115.9 -29.2,-71.3 -13,-135.4 32,-194.8 38.3,-50.7 89.9,-84.2 145.4,-112.4 85.4,-43.4 176.4,-69.3 270.9,-84.1 91.3,-14.3 183,-18.5 275.2,-12.9 120.7,7.3 239.2,25.8 351.1,74.6 67.1,29.2 126.6,69.1 177.6,122.4 84.4,88.4 62,211.7 -3.4,279.4 -65.3,67.6 -144.6,110.6 -232.6,140.3 -99.4,33.6 -249.7,61.1 -378.2,57.5 z m 223.8,-97.1 c -5.7,6.7 -10.8,11.2 -18.1,12.9 -2,0.5 -5.5,0.3 -4.3,3.3 3,7.4 1.6,16.1 7,22.6 6.2,7.3 14.1,3 21.3,2.6 2.4,-0.1 6.1,-1 4.8,-4.6 -4,-11.4 1.7,-20.7 5.7,-30.5 1,-2.6 3.4,-5.6 1.4,-8.8 -2.5,-4 -5.9,3.4 -8.8,-0.5 13.5,-13.6 17.6,-28.7 8.7,-46.5 -1.4,-2.8 -1,-7.3 0.2,-10.4 3.3,-8.6 1.8,-16.6 -1.5,-24.6 -2.1,-5.1 -4.9,-10.2 1.4,-15.8 1.5,2.7 2.6,4.5 3.6,6.4 1.4,3 1.1,7.8 6,7.4 3.8,-0.3 5.9,-3.7 7.6,-6.9 1.2,-2.3 2,-5.3 3.8,-6.9 5,-4.3 13.8,-1.9 12.1,2 -4.5,10.4 3.9,17.4 3.3,26.1 -0.5,6.8 -0.1,13.6 -0.1,21.8 5.6,-3.5 9.2,-5.8 12.8,-8 0.8,1 1.5,1.9 2.3,2.9 -2.9,2.1 -6,3.9 -8.7,6.2 -2.8,2.3 -5.6,5.4 -1.7,8.8 4.3,3.8 6.1,-1.3 8.2,-3.3 6.8,-6.2 9.9,-14.3 11.4,-23.4 1.3,-8.2 1.6,-8.1 11.4,-12 -10,17.3 -7.7,40.5 -28.5,51.1 -2.6,1.3 -1.4,3.9 0.2,5.6 7.2,7.3 4.2,15.6 2.3,23.8 -1.8,7.7 -4.8,15.8 2.5,22.4 6.8,6 13.5,-0.3 20.2,-0.9 2.4,-0.2 5.6,-1.1 5.8,-4.4 0.2,-3.1 -2.7,-4.3 -4.8,-5.9 -5.4,-4.2 -11.9,-7.2 -15.4,-15.5 15.8,0.6 19.3,-6.8 20.6,-21 1.3,-13.6 13.4,-24.2 22.2,-35 2.2,-2.7 6.9,-4.3 10.9,-1.3 1.9,1.4 3.4,2.8 2.6,5.5 -5.5,17.1 -5.2,34.4 -1.2,51.8 1,4.1 -2.8,11.5 4.7,11 5.7,-0.4 14,-0.3 15.7,-9.3 0.5,-2.5 1.6,-5 2.6,-7.4 10.6,-25.7 19.8,-51.5 3.3,-78.4 -2.1,-3.3 -0.6,-6.8 0.1,-10.3 1.6,-8 5.4,-17 3,-23.8 -1.5,-4.4 -4.1,-6.3 -0.7,-10.8 7.8,-10.2 5.8,-16.7 -7.4,-19.2 -2.7,-0.5 -7.5,-0.9 -7.3,-5.7 20.5,-5.9 37,5 58.5,12.9 -15,2.3 -13.9,8.1 -8.7,15.3 1.8,2.5 3.7,5.4 4.1,8.3 1.4,9.1 7.6,8.9 13.9,7.3 8.2,-1.9 4.7,-7.8 3.8,-12.9 -2.5,-13.5 -8.4,-26.4 -8.8,-41.5 8.3,4.8 15.1,8.4 10.7,18.8 -1.2,2.8 0.4,7 1.1,10.4 2.3,10.7 4.8,21.3 7.4,32 4.9,20.7 10.1,41.3 14.8,62.1 1.3,5.8 3.6,6.2 8.1,3.5 49.8,-29.1 97.6,-61 131,-109.3 44.9,-64.8 50,-132.6 8.7,-201.2 -23.9,-39.7 -60,-67.9 -97.7,-93.2 C 1405.8,737.7 1300.9,707.3 1192.8,689 1091.7,671.9 989.4,670.2 887,679.7 c -102.7,9.4 -202.5,31.7 -298.1,70.4 -71.6,29 -136.3,68.8 -184.9,131.1 -48.5,62.1 -52.3,130.3 -13.8,195.3 33.1,55.9 83.5,95 140.9,125 4.8,2.5 7.7,1.8 10,-2.1 4.5,-7.8 8.5,-15.9 13.1,-24.7 -17.7,0.1 -33.9,3.8 -53.1,1.4 18.3,-6 34.7,-6.3 50.6,-9.2 10.2,-1.9 15.9,-10.9 13.5,-16.2 -6.1,-13.2 2.3,-18.7 8.9,-26 3.6,-4 3.3,-8.9 3.6,-13.8 0.2,-4.5 13.2,-13.7 16.3,-11.9 0.4,3.7 -5.3,6.4 -1.4,11.2 4.9,-2.7 10.2,-5 14.6,-8.5 4.4,-3.4 8.6,-7.4 14.1,-3.7 5.6,3.8 4.6,9 2.8,15.3 -10.5,37.7 -1.4,57 34.8,75.5 7.2,3.7 12.8,8.7 14.7,17.3 -19.8,-0.2 -40,3.2 -54.2,-17.8 -0.8,7.5 5.1,9.3 4,12.9 -13.6,8 -26.6,15.7 -41.5,24.4 31.9,14.4 62.4,23.8 92.8,33.3 3.9,1.2 7.8,0.6 9,-3.2 2.5,-7.6 7.9,-12.5 13.1,-17.9 4.6,-4.7 4.4,-8.9 0.9,-19.2 -1.5,13.5 -8.4,19.9 -20.5,22.3 -0.3,-16.8 9.5,-27 20.7,-34.7 13.5,-9.2 30.2,-12 46,-11.1 20.1,1.1 39.6,12.8 60.5,3.2 3.7,-1.7 9,-1.5 13.2,-0.4 7.7,1.9 15.5,3.8 12.7,15.7 -1.8,7.6 -0.3,16 -0.3,24 6.6,-12.4 19.1,-11.3 28.9,-15.1 4.2,-1.6 7.8,0.2 10.7,3.5 3.2,3.7 0.1,6 -1.4,9.2 -5.3,11.7 -10.4,23.5 -7.6,37.1 1.6,7.6 4.6,17.3 -10.4,12.4 -4.6,-1.5 -10.6,1.5 -10.5,7.4 0.1,5.1 6,4.1 9.6,4.5 11.5,1.2 23,2.2 34.5,2.7 3.2,0.1 9.2,3.2 9.5,-3.2 0.3,-6.6 -5.5,-3.5 -9,-4 -1,-0.1 -1.9,-1.3 -3.2,-2.3 6.4,-8.5 12.5,-16.8 19.5,-26.1 -8.1,0.4 -9.9,8.2 -16.6,8.1 2.7,-8.7 8.5,-14.8 14.8,-19.1 9.8,-6.7 0.2,-14.4 2,-21.2 4.3,-0.1 2.9,7 6.9,5 2.3,-1.2 4,-4.6 4.7,-7.4 1.1,-3.8 -3.3,-3.1 -4.9,-4.7 -4,-4 -9.4,-2.4 -14,-3.3 6.1,-15.9 14,-29.5 25.6,-40.7 2.3,-2.2 5.6,-7.9 8,-4 5.7,8.8 6.3,1 8.4,-1.7 4,-5.3 8.8,-7.8 14.8,-3.9 5.7,3.8 4.4,8.8 1.6,14 -2.6,4.8 -6.4,9.5 -2.3,15.6 6,8.8 10,16.2 0.1,26.7 -9,9.6 1.2,19.6 6.2,28.7 2.5,4.5 8.5,10.6 3.4,14 -9.8,6.5 -3.5,16 -6.9,23.5 -1.8,4.1 2.1,9.7 6.5,10.2 12.1,1.1 26,5.8 36.1,-1.7 9.6,-7.1 9.1,-20.5 7.9,-32.3 -0.2,-2.1 -1.6,-4.1 -2.2,-6.2 -1.1,-3.5 -1.8,-7.3 0.4,-10.3 6.7,-9.1 13.6,-18.1 20.9,-26.7 2.6,-3.1 6.8,-4.2 10.9,-1.7 4.4,2.7 4.7,6.4 1.8,10.2 -3.3,4.3 -0.8,7.9 -0.1,12.3 2.4,13.8 13.9,16.6 24.4,20.4 -3.4,6 -8.8,4.3 -12.5,6.5 -3,1.8 -6.4,3 -6.5,7.6 -0.1,15.2 6.6,21.9 21.5,21.4 1.8,-0.1 3.6,-0.2 5.3,-0.2 10.3,0.2 9.2,-8.5 10,-14.2 1,-6.7 -5.4,-5.3 -9.6,-5.8 -5.3,-0.5 -11.6,1.2 -14.8,-5.9 15.1,-1.5 20.8,-10.5 17.2,-25.1 -1,-4 -1.3,-8.8 2.2,-11.2 7.5,-5.2 12.8,-12.1 17.9,-19.4 3.4,-4.9 8.6,-3.8 13.2,-1.3 5.7,3.1 3.7,7 1.2,11.1 -3.4,5.7 -4.1,11.4 -0.1,17.4 8,12.1 7.4,18 -1.9,27 -0.9,0.9 -1.2,2.3 -1.5,3.6 -3.9,14.4 2.5,21.9 17,20.2 3.5,-0.4 7.1,-1.7 10.5,-1.5 11.6,0.7 14.3,-7.4 12.7,-15.4 -1.7,-7.9 -1.5,-15.3 0.7,-23.5 -2.4,0.7 -3.7,0.8 -4.8,1.4 -5.4,2.7 -8.6,15 -14.5,9 -4.6,-4.8 6.2,-9.3 10.8,-13.3 6.2,-5.2 11,-9.8 0.9,-16 -3.6,-2.2 -5.1,-5.8 0.9,-7.2 10.1,-2.4 9.8,-9.7 9.5,-17.6 -0.2,-5 -2.1,-11.2 4.8,-13.8 7.1,-2.7 11.8,-7.1 13.9,-14.7 1.1,-4.2 5.1,-6.8 9.3,-5.9 4.1,0.8 7.7,4.2 6.8,8.7 -2.6,12.7 8.4,23 5.3,35.8 -0.9,3.8 2.6,8.7 6,9.6 7.2,1.8 11.2,8.7 19.8,9.4 z M 768.6,1274 c 5.3,-1.3 7.7,-1.8 10.1,-2.4 4.6,-1.2 9.3,-3.3 6.9,-8.9 -2.1,-5 -7.1,-4.5 -11.5,-2.6 -5.6,2.4 -8.7,7.3 -11.9,12.1 -3.7,5.8 -3.6,9.6 4.3,11 9.6,1.7 19.1,3.6 28.6,5.7 6.5,1.4 10.3,-1.4 14.8,-6 8,-8 10.8,-19.3 14.8,-28.5 3.1,-7.1 -6.8,-20 -11.5,-30 -1,-2.1 -4.9,-0.5 -7.4,0.6 -11.1,5 -10.4,18.7 -18.9,25.7 -0.4,0.3 0.9,3.5 2,4.5 5.4,4.6 8.4,9.4 2.5,15.6 -5.7,6 -12.3,7.5 -22.8,3.2 z m 493.1,-30.5 c 2.3,-5.6 1.1,-9.2 -3.1,-9.6 -5.8,-0.6 -11.9,0.9 -14.7,6.6 -3.9,7.9 -7.2,16.2 -10.1,24.5 -2.6,7.2 1.1,13.8 7.6,14.1 6.5,0.3 17.2,3.1 18.3,-9.4 0.7,-9.2 1.4,-18.5 2,-26.2 z m -516.2,34.6 c 5,0.5 20.2,-15.8 18.8,-23.5 -2.2,-11.7 -15.2,-6.7 -22.6,-8.9 -8.9,-2.6 -12,9.4 -13.6,16.6 -3.1,13.7 8.9,13.3 17.4,15.8 z m 194.9,12.3 c 0.4,-2.9 0.9,-5.5 1.1,-8.1 0.2,-2.6 0.5,-5.6 -3,-6.4 -2.6,-0.6 -6.2,-1 -7,1.9 -3.2,11.3 -11.6,11.5 -20.9,11.3 -6,-0.1 -6.8,3.4 -3.4,7.7 7.8,9.8 18.9,5 28.5,5.4 9.6,0.3 1.9,-8.5 4.7,-11.8 z m 487.5,-149.5 c -4.1,22.9 -3.5,45.1 7.3,65.7 1.2,2.3 2,5.3 5.4,4.6 3.5,-0.8 3.3,-4 2.7,-6.5 -5.1,-21.3 -10.3,-42.5 -15.4,-63.8 z m -710.2,110.6 c 3.4,-11.1 -1.4,-9.3 -6.9,-6 -3.9,2.3 -8.1,3.1 -12.5,3.8 -6.1,0.9 -9.5,6.2 -9.7,11.1 -0.2,4.4 6.1,3.6 9.6,4.9 2.1,0.7 4.2,1.5 6.3,2 5.6,1.3 13.4,5.5 16.2,3.3 5.9,-4.7 -0.6,-10.9 -2.5,-16.4 -0.5,-1.2 -0.5,-2.6 -0.5,-2.7 z m 448,42.3 c 3.1,-3.9 13,2.3 12.9,-6.6 -0.1,-5.3 -1.1,-14.2 -10.9,-12.9 -5.7,0.7 -12,2 -12,9.5 -0.1,5.3 1.8,10.4 10,10 z m -589.5,-99 c -1.1,7.3 1.9,17.3 -10.6,13 -5.4,-1.9 -12.8,-5.2 -14.9,1 -1.7,5 7.4,5.4 11.4,8.3 0.3,0.2 0.9,0.3 1.2,0.5 9.9,6.1 13.2,-3.3 17.8,-8.1 5.5,-5.5 2,-10 -4.9,-14.7 z m 436.6,109.7 c 4,0 7.8,0.4 11.6,-0.1 5.1,-0.7 7.3,-4.7 8.2,-9.2 0.6,-2.6 0.1,-5.5 -2.8,-6.8 -4.8,-2 -7.4,1.8 -10.1,4.5 -3,3.1 -6.9,5.7 -6.9,11.6 z m -197.1,-13.7 c 4.8,1.7 9.3,6 13.4,-0.7 1.1,-1.8 1.7,-4.8 -0.6,-5.8 -6.3,-3 -9.6,1.2 -12.8,6.5 z m 365.6,-52.7 c -3.1,-0.6 -5.3,0.5 -4.5,3.1 1,3.6 2.7,7.8 6.4,8.9 2.2,0.6 4.4,-2.7 4.8,-5.3 1.1,-5.8 -4.4,-5 -6.7,-6.7 z"
   id="path2" />
		<path
   d="m 1635.3,1165.9 c 2.1,-5.4 -0.2,-9.1 -2.7,-11.8 -10.4,-11.3 -8.4,-21.5 1,-32.2 3.4,-3.9 5.5,-9.1 8.1,-13.7 10.9,-19.4 10.9,-19.4 30.1,-6.9 1.7,1.1 3.3,2.3 5.7,2.6 -2.8,-7.7 -9,-12.2 -15.3,-16.7 -2.4,-1.8 -8.7,-2.5 -5.5,-6.9 3.8,-5.3 6.5,1.3 9.3,3 2.5,1.5 3.5,5.1 9.6,5.3 -5.9,-6.6 -10.7,-11.9 -17.1,-19 7.7,0.9 10.1,5.6 13.8,8.2 3.9,2.7 6,7.9 11.6,8.3 2.3,-2.5 0,-4.5 -1.2,-5.4 -15.9,-12.3 -19.9,-27.2 -12.7,-46.3 5.2,-13.8 2.3,-29 3.3,-46.3 23.5,22.5 49.8,39.9 50,75.7 0.1,11.5 2.1,23 3.3,34.4 0.6,6.1 1,9.9 -8.1,7.6 -13.4,-3.4 -18.6,2.6 -17.4,16.7 1,11.1 5.7,21.1 8.6,32 -1.3,-0.2 -2.1,-0.2 -2.7,-0.5 -5.7,-3.5 -9.7,-11.9 -18.2,-7.8 -5.4,2.6 -4.6,22.1 0.8,32 0.5,-0.5 1.3,-0.9 1.4,-1.5 1.7,-6 -3.8,-14.9 4.3,-17.8 7.4,-2.6 10.6,6.4 15.6,10.4 13.3,10.6 16,23.9 11.1,39.9 -2.1,6.8 -6,11.8 -12,12.8 -6.9,1.1 -5.2,-6.9 -7,-10.7 -4.1,-8.4 -7.2,-17.3 -13.7,-24.1 -4.7,-4.9 -10.1,-9.2 -17.6,-6.2 -6.9,2.8 -10,8.4 -9.9,15.8 0.1,8 0,16 0,23.9 -1.1,0.2 -2.1,0.7 -2.7,0.5 -4.6,-2 -8,-9.6 -13.5,-6.2 -4.9,3 -4.4,10.1 -4.4,15.8 0,7.9 0,15.8 0,24.5 -7,-3.9 -9.2,-16.2 -20,-11.9 -14.1,5.7 -8.5,19.8 -12.4,29.9 -15.9,-5.4 -18.8,-2.3 -22.8,26.1 -5.2,-17.8 -11.9,-11.6 -20.2,-4.6 -16.9,14.3 -36.3,26.3 -40.4,50.7 -1.1,-0.2 -2.1,-0.1 -2.5,-0.5 -3.6,-3.1 -1.7,-11.2 -7.8,-11 -6,0.2 -6.8,7.4 -9.5,11.7 -3.3,5.1 -5.9,10.7 -10.6,19.2 -5.6,-24 -3.9,-45.1 -5.9,-65.9 -1.5,-15.9 -4.6,-33.6 0.7,-47.5 5.4,-14.1 24.8,-18.4 37.7,-27.3 31.5,-21.8 62.7,-43.8 86.6,-74.3 5.3,-6.8 7.6,-4.8 10.8,1.5 2.5,4.9 3.6,11.1 10.4,14.5 z m -6.8,52.7 c 1.7,-18.2 10.4,-32.5 22.7,-45.2 3.4,-3.4 6.3,-7.5 8.5,-11.7 5.7,-10.8 2.7,-20.6 -9.5,-28.4 7,18.9 -3.5,30.7 -14,42.3 -11.1,12.5 -14.9,26.3 -7.7,43 z m -119,85.7 c 7.7,-11.6 5.6,-23.7 3.3,-35.8 -0.7,-3.7 -1.7,-7.6 -6.1,-7 -4.2,0.6 -5.2,4.8 -4.4,8.4 2.8,11.3 5.2,22.7 7.2,34.4 z"
   id="path3" />
		<path
   d="m 289.6,1124.9 c 12.1,-12.5 11.9,-19.8 -3,-28.3 -9.4,-5.4 -11.4,-11.8 -10.1,-21.5 3,-22.9 7.3,-45.5 15,-67.4 1.3,-3.7 0.8,-10.4 7.8,-7.4 6.4,2.7 16.8,1.3 17.5,11.1 0.8,12.5 1.5,24.9 5.1,36.8 3.5,11.4 7.5,22.6 11.3,33.9 -4.1,2.8 -10.1,0.9 -13,5.9 3.3,4.1 8.1,3.2 12.4,3.3 4.7,0.1 8.4,1.6 8.7,6.3 0.4,5.4 -4.9,3.7 -7.8,4.8 -2,0.7 -4.4,0.8 -5.2,5.8 20.5,-6.7 24.9,10.3 33.2,21.8 17.5,24.3 38.6,45.3 61.4,64.6 3.7,3.1 7.2,6.4 12.2,10.8 -41.7,13.6 -79.6,33.1 -120.9,44.5 10.6,3.3 21.5,2.3 32.3,0.8 10.7,-1.5 21.3,-1.6 31.8,0.7 11.4,2.5 13.5,7.4 6.9,16.6 -5.3,7.3 -11.3,14.3 -21.6,13.4 -6.7,-0.6 -16.3,-0.2 -9.3,-11.9 2,-3.4 -0.1,-5 -2.6,-6.1 -4.1,-1.8 -7.8,-0.5 -11.1,2.4 -3.6,3.1 -4.4,6.9 -1.8,10.7 5.4,7.6 12.9,12.1 22.4,12.7 12,0.7 22.9,-2.5 32,-10.7 3.8,-3.4 7.4,-6.3 12.9,-5.2 5.7,1.1 8.1,3.9 4.3,9.1 -4.6,6.5 -9.6,12.8 -14.5,19.1 -5.5,7.3 -10.4,14.8 -6.4,24.4 1.8,4.2 0,5.6 -3.4,6.8 -1.7,0.6 -3.3,1.3 -5,1.9 -35.5,13.7 -38.6,12.6 -56.2,-20.5 -12.5,-23.5 -24.2,-47.4 -33.1,-72.5 -2.2,-6.1 -1.7,-8.7 5,-9.7 23.9,-3.6 47.6,-7.8 71.7,-9.2 2.2,-0.1 4.8,0.6 6,-1.6 1.2,-2.2 -0.5,-4.2 -2.1,-5.8 -15.3,-15.7 -25.8,-35 -39,-52.3 -11.7,-15.9 -25.4,-29.6 -43.8,-38.1 z m 23.8,-87 c -4.3,5.4 -11.8,4.1 -13.6,10.3 -0.5,1.5 2.9,3.3 5.2,3 6,-0.8 9.1,-4.2 8.4,-13.3 z"
   id="path4" />
		<path
   d="m 635.4,1408.8 c -17.6,2.3 -33.8,4.5 -49.3,10.5 -13.6,5.4 -24.8,13.7 -33.4,25.4 -12.4,16.9 -8,39.7 9.9,51.1 27.8,17.8 64.8,14.4 89.2,-8.2 1.6,-1.5 2.9,-3.6 5.5,-2.9 6.7,1.9 13.3,1 19.6,-1.2 5.8,-2 11.4,-4.6 17.2,-7 5.2,19.2 6.3,19.9 31.8,21.1 -26.5,21.5 -51.7,41.4 -79,58.6 -4,2.5 -7.4,1.3 -11.3,-0.1 -77.5,-26.2 -145.8,-68.8 -210,-118.6 -0.6,-0.5 -0.9,-1.5 -1.3,-2.2 0.3,-0.7 0.5,-1.9 0.9,-2.1 32,-8.7 60.9,-23.6 88.5,-41.9 13.7,-9 30,-13 46.9,-12.4 9.4,0.3 11.9,4.6 8.2,12.8 -5,11.3 -12.6,20.4 -24.6,24.7 -2.2,0.8 -5.3,0.3 -7.6,-0.7 -1.8,-0.7 -1.3,-3.3 0,-4.6 4,-4.1 6.3,-8.3 -0.3,-11.5 -6.4,-3.1 -11.1,0.5 -14.5,5.7 -3.8,5.7 -1.5,10.3 3.4,13.7 2.5,1.7 5.7,2.7 8.6,3.1 13.6,1.8 27.1,-1.2 35,-12 14.4,-19.8 32.5,-16.4 51.3,-11.2 5.2,1.7 11.2,3.3 15.3,9.9 z"
   id="path5" />
		<path
   d="m 1518.1,1420 c 13.6,-13.8 18.1,-28.8 11.7,-47.9 -5.9,-17.6 0,-30.9 14.8,-41.7 0,7.8 0.1,16 0,24.2 -0.1,10.9 2.3,21 14,24.7 11.2,3.5 18.4,-3.5 24.2,-12.2 1.9,-2.9 3.9,-5.8 7.2,-10.6 5,20.7 7.6,40.1 8.5,59.7 0.2,4.2 -3,6.2 -5.6,8.5 -26.7,24.4 -56.4,44.6 -86.6,64.3 -5.4,3.6 -7.9,3 -7.8,-4 0.3,-14.2 0.8,-28.5 0.5,-42.7 -0.5,-20 -1.4,-40 -2.4,-59.9 -0.5,-9.4 3,-17.2 8.6,-24.5 5.1,-6.6 8,-5.6 10.4,2.1 5,16.8 8,33.6 2.8,51.1 -0.8,2.5 -3.5,5.4 -0.3,8.9 z"
   id="path6" />
		<path
   d="m 1654.8,1306.1 c 3.4,10.9 6.3,20.1 9.2,29.2 1,3.1 1.1,6.1 -0.8,8.9 -16.3,23.6 -34.2,45.9 -55.9,67 -5.9,-33.4 -11.5,-65 -17,-96.6 -0.2,-1.3 -0.2,-2.7 0,-4 1.2,-8.2 0.3,-19 8.4,-22.4 7.5,-3.1 12.2,6.6 17.8,11.2 3.4,2.8 6.4,6.2 9.8,9 11.8,9.7 15.4,9.6 28.5,-2.3 z"
   id="path7" />
		<path
   d="m 454.2,1369.8 c -23.4,9.1 -44.3,17.3 -65.2,25.5 -5,2 -8.4,-0.1 -11.6,-3.8 -10.3,-12.2 -20.1,-24.7 -29.5,-39.9 8.6,-1.8 16,-3.4 23.5,-5.1 24.1,-5.3 46,-15.8 67.3,-28 14.7,-8.5 22.6,-7.7 38.7,3.7 -10,2.3 -19.2,4.2 -28.2,6.5 -10.8,2.7 -21.7,7.2 -21.9,19.8 -0.2,11.9 11.1,14.7 20.4,17.8 1.2,0.7 2.3,1.4 6.5,3.5 z"
   id="path8" />
		<path
   d="m 390,1402.7 c 17.5,-6.4 34.8,-12.6 52,-19.2 9,-3.5 18.7,-6.5 26.5,-12 16.5,-11.6 35.2,-10.8 53.6,-11.9 3.8,-0.2 10,-1.4 11.5,3.8 1.2,4.3 -3.9,6.6 -6.9,8.9 -27,20.4 -56.2,37 -88.2,48.4 -25.6,9 -31.9,7 -48.5,-18 z"
   id="path9" />
		<path
   d="m 1088.2,1482.8 c 0.2,13.6 -6,23.5 -10.9,33.6 -17.1,35.3 -39.7,67 -63.3,98.2 -2.2,2.9 -4.1,5.5 -8.4,5.4 -10,-0.3 -20.1,-0.1 -34.1,-0.1 18.9,-16.8 34.5,-31.4 47.7,-48.4 16.3,-21.1 31.4,-43 43.9,-66.5 5.4,-10.4 14.4,-16 25.1,-22.2 z"
   id="path10" />
		<path
   d="m 1671.2,1333 c -9.2,-30.7 -23.9,-56.2 -24.6,-85.7 -0.1,-4.6 -2.7,-11 2.5,-13.4 5.4,-2.5 8.4,3.6 11.3,7.2 11.9,14.4 20.6,30.9 30,47 2.5,4.4 2.1,8.4 -0.4,12.5 -5.8,9.7 -11.4,19.7 -18.8,32.4 z"
   id="path11" />
		<path
   d="m 1584.6,819.8 c 15.1,8.6 25.4,20.3 35.6,31.7 20.8,23.1 40.4,47.3 56.2,74.2 1.8,3.1 7.9,8.2 1.8,10.4 -5.4,1.9 -14.1,5.8 -18.5,-3.6 -3.4,-7.2 -6.5,-14.5 -9.8,-21.8 -13,-28.9 -33.9,-51.8 -55.4,-74.3 -4.2,-4.4 -8.8,-8.5 -9.9,-16.6 z"
   id="path12" />
		<path
   d="m 1551.4,1334.9 c -2.4,-15.9 11.1,-20.7 19.9,-28.7 2.5,-2.3 5.6,-1.1 6.4,1.7 3.5,12.9 12,25.2 6.5,39.3 -3.3,8.4 -8.5,17.2 -18.7,15.9 -10.3,-1.3 -12.9,-10.8 -13.5,-20.2 -0.2,-2.7 -0.4,-5.4 -0.6,-8 z"
   id="path13" />
		<path
   d="m 769.2,1457.4 c -9.4,8.8 -17.6,16.8 -26.2,24.3 -7.5,6.6 -23.3,7 -28,1.2 -5.2,-6.5 -0.5,-16.5 7.2,-25.4 15.3,-17.4 29.8,-8.4 47,-0.1 z"
   id="path14" />
		<path
   d="m 501.8,1341.1 c -0.2,3.6 -2.4,4.6 -4.2,5.6 -9.2,5.2 -18.3,10.9 -28,15.1 -9.1,3.9 -18.5,0 -23.5,-7.2 -5.8,-8.3 0.8,-15.7 8.1,-19.5 17.1,-8.7 29,-12.2 43.4,2.1 1.5,1.5 3.1,2.9 4.2,3.9 z"
   id="path15" />
		<path
   d="m 1061,1481.5 c -6.5,11.7 -12.2,22.5 -18.5,32.9 -3.9,6.4 -10.6,9.3 -17.8,10.2 -8.5,1.1 -16.4,-6 -15.9,-13.7 0.7,-10.2 15.1,-24.6 25.8,-26 8.3,-0.9 16.5,-2.1 26.4,-3.4 z"
   id="path16" />
		<path
   d="m 1683.4,1259.1 c -12.8,-16.2 -18.2,-32.4 -15.7,-51.1 0.6,-4.6 1.2,-9.1 5.7,-11.2 4.9,-2.2 8.7,1.1 11.6,4.3 4.2,4.5 8.1,9.4 11.4,14.6 4.6,7.4 7.4,14.5 -2,21.4 -6.5,4.7 -8,13.4 -11,22 z"
   id="path17" />
		<path
   d="m 825.9,1384.5 c 1.3,0.4 4.3,0.4 5.3,1.7 2.1,3 -1.2,4.6 -3,6.3 -16.4,15.6 -33.1,31 -49.1,47 -7,7 -13.2,2.5 -17.4,-1.2 -4.7,-4.1 2.2,-7.3 4.8,-10.1 11.5,-12.4 23.1,-24.7 36.8,-34.8 6.4,-4.6 13.5,-8.2 22.6,-8.9 z"
   id="path18" />
		<path
   d="m 1081.3,1532.8 c 6.8,-20 20.4,-33.2 34.4,-46.1 3.9,-3.6 8.6,-7.6 14.1,-5 6.5,3.2 4.9,10.3 3.6,15.4 -3.4,12.8 -7.6,25.4 -24.5,26.3 -9.4,0.6 -17.6,5.6 -27.6,9.4 z"
   id="path19" />
		<path
   d="m 1341.1,1484.6 c 4.8,-20.4 11.1,-38 22.5,-53.3 2.5,-3.4 5.6,-7.4 10.9,-5.4 5,1.8 5.6,6.5 6.3,10.9 2.6,17.1 -5.1,31.3 -20.6,38.5 -5.8,2.6 -11.6,5.5 -19.1,9.3 z"
   id="path20" />
		<path
   d="m 332.8,1185.1 c -18.5,-5.4 -35.3,-2 -51.9,9.2 -1.4,-6.8 -2.7,-12.2 -3.6,-17.6 -2.3,-14.4 1.5,-18.6 15.9,-17.8 17.5,1.1 35.5,1.3 39.6,26.2 z"
   id="path21" />
		<path
   d="m 1015.3,1485.7 c -7.6,9.9 -15.7,19.1 -21.8,29.9 -4.3,7.6 -20.7,10.5 -24.8,5.5 -7.1,-8.6 -4.4,-17.1 2.1,-25.2 11.8,-14.8 26.7,-16.4 44.5,-10.2 z"
   id="path22" />
		<path
   d="m 353.7,1213.6 c -15.6,6.6 -31.3,9.3 -47.3,1.9 -3.8,-1.7 -8.5,-4 -8.7,-9.2 -0.3,-5.7 4.1,-8.5 8.3,-11.1 18.9,-11.5 35.4,-5.3 47.7,18.4 z"
   id="path23" />
		<path
   d="m 1130.9,1520.3 c 4.6,-11.9 10.9,-21.6 14.7,-32.5 2.8,-8 10.8,-15.9 20.7,-12.3 9.6,3.5 7,12.9 4.7,20.7 -6.9,23.1 -13.6,27.2 -40.1,24.1 z"
   id="path24" />
		<path
   d="m 1624.8,1256.9 c 4.1,-0.2 6.4,2.6 8.6,5.3 7.6,9.4 12.4,20.3 16.4,31.6 2.4,6.6 -4.1,13 -11.1,11.7 -15.5,-3 -28.5,-29.7 -21,-43.2 1.7,-2.8 3.4,-5.5 7.1,-5.4 z"
   id="path25" />
		<path
   d="m 1671.2,964.1 c 8.8,1.5 13.8,15.7 25.8,7.6 1.9,-1.3 3.4,2.2 4.1,4.2 4.5,12.8 9.6,25.5 12,39.4 -16.3,-7.8 -42.3,-40 -41.9,-51.2 z"
   id="path26" />
		<path
   d="m 1725.8,1176.7 c -5.6,-13.1 -9.7,-22.7 -13.7,-32.3 -1.9,-4.6 -2.3,-9.5 -1.7,-14.4 0.9,-7.4 6.4,-8.8 12.5,-9.1 7.4,-0.3 5.6,5.4 5.6,9.4 0.1,14.2 1.2,28.3 -2.7,46.4 z"
   id="path27" />
		<path
   d="m 358.3,884.4 c -10.6,23.7 -24.6,45.3 -31.3,70.3 -2.7,10 -9.2,1.3 -15.4,3.5 13,-28 28,-52.2 46.7,-73.8 z"
   id="path28" />
		<path
   d="m 313.9,1153.5 c -12.6,-0.9 -22.9,-7.4 -34.2,-3.7 -3.1,1 -5,-1.6 -5,-4.6 0.1,-6.1 -2.7,-12.7 1.4,-18 1.8,-2.4 5.8,-1.4 8.7,0.3 11.1,6.2 22.6,12 29.1,26 z"
   id="path29" />
		<path
   d="m 1715.4,1236.7 c -4.5,17.2 -10.2,33 -18.1,48.5 -12.4,-15.8 -6.3,-32 18.1,-48.5 z"
   id="path30" />
		<path
   d="m 313.9,966.3 c 4.5,0 10.3,-0.4 8.3,6.4 -2.4,8.1 1.6,19.3 -7.5,23.7 -3,1.4 -13.5,-1.9 -15.3,-9.4 -1.7,-6.9 8.7,-20.5 14.5,-20.7 z"
   id="path31" />
		<path
   d="m 1680.4,944.6 c 5.8,-0.1 15.2,11.9 13.7,16.8 -1.5,5 -5.2,2.7 -7.1,0.8 -2.7,-2.7 -3.8,-6.6 -8.5,-7.4 -3.7,-0.7 -10.9,2.8 -10.4,-3.6 0.4,-5.6 8,-5.4 12.3,-6.6 z"
   id="path32" />
		<path
   d="m 649,1473.8 c -7.3,-4.7 -11.7,-10.1 -8.3,-18.6 1.2,-3 5,-4.7 7.6,-2 6,6.2 5.2,13.1 0.7,20.6 z"
   id="path33" />
		<path
   d="m 274.8,1116 c 0.2,-6.4 -3.6,-12.7 2.6,-16.1 2.6,-1.5 6.9,1.9 7.6,5.6 1.3,7.3 -4.6,8.1 -10.2,10.5 z"
   id="path34" />
		<path
   d="m 298.7,1221.5 c -9.1,5.7 -13.1,3.5 -13.7,-7.2 5.2,0.8 8.9,3.5 13.7,7.2 z"
   id="path35" />
		<path
   d="m 720.8,938.9 c 20.3,-34.7 47,-65.1 66,-102.5 -9,2.1 -17.8,9.7 -25.1,-0.6 -0.2,-0.2 -1.9,0.1 -2.2,0.5 -6,10.1 -19,13.1 -24.5,23.3 -11.9,22.4 -31.7,33.3 -55.5,36.5 -19.5,2.6 -28.7,-10.8 -22.3,-29.5 4.2,-12.2 13.1,-20.8 21.9,-30.1 -14.9,0.7 -29.2,12.5 -31.5,25.8 -1.9,10.6 -6.9,19.2 -16.4,24.6 -4.1,2.3 -8.6,2.9 -12.2,-0.8 -2.5,-2.6 -2.1,-6 0.1,-8.5 3.2,-3.8 6.9,-3.4 10.4,-0.1 4.3,4.2 6.2,0.2 8.1,-2.5 3.6,-4.9 2.9,-9.9 -0.2,-14.9 -3,-4.8 -7.4,-4.8 -11.7,-2.8 -9.5,4.3 -12.5,13.4 -15.1,22.4 -6.5,22.1 -12.2,44.4 -19.3,66.3 -4.6,14.3 -10.8,28.1 -16.7,42 -2.5,5.9 -5.3,12.1 -12.1,15.4 16.4,-43.2 33,-86.1 38.3,-134.6 -16.6,8.4 -22.4,20.6 -25.2,35.7 -7.6,40.2 -22,78.4 -36.1,116.6 -0.2,0.6 -1.5,0.8 -5.2,2.7 8.7,-36.3 23.8,-68.8 28,-104.3 -1.5,0.3 -2.5,0.2 -3.1,0.6 -5.8,3.4 -10.4,11.9 -18.3,6.8 -7.2,-4.6 -5.8,-12.2 -3,-19.2 0.5,-1.2 0.8,-2.8 0.4,-3.9 -3.9,-11 -4.2,-11.4 6.1,-17.6 8.7,-5.3 17.9,-9.8 27,-14.3 3.1,-1.6 7.2,-5.2 8.6,2.4 1,5.2 3.7,1.5 5.3,0 3.9,-3.6 7,-8.7 11.6,-10.8 4.7,-2.1 7.3,-17.1 16.4,-3.7 1.5,2.2 4.8,-3.9 7.7,-5.7 7.7,-4.9 13.2,-18.4 25.1,-5.9 1.3,1.4 3.2,-0.2 4.5,-1.4 1.9,-1.9 3.4,-4.6 5.7,-5.6 26.2,-11.2 38.4,-36.4 56.6,-55.6 10.7,-11.3 22,-22.1 38,-25.7 7.3,-1.6 15.3,-2.3 18.7,5.3 3.7,8.3 -0.8,15.6 -7.8,20.7 -14.8,10.8 -26.7,7.1 -29.3,-10.9 -15.9,12.3 -28.2,26.3 -38.8,41.8 -3.6,5.3 1.2,5.5 5,5.3 18.7,-1.3 37.3,-2.5 50.5,-19.2 -3.3,12.1 -14.8,21.9 -31.4,24.1 -18.7,2.5 -33.9,9.4 -45,24.7 -5.5,7.6 -11.7,15.7 -5.5,25.4 6,9.4 15.9,8.6 25.3,6.6 15.2,-3.2 28,-10 35.5,-23.5 -1,-3.6 -3.1,-3.1 -4.7,-3.2 -6.1,-0.3 -11.8,-1.4 -13.7,-8.2 -1.1,-3.8 0.9,-7.3 4.1,-9.1 6.1,-3.3 14,-2.9 17.3,1.8 6.8,9.5 11,3.7 16.1,-0.7 9.1,-8 15.5,-18.2 23.6,-28.9 -12.1,0.2 -18.8,9.7 -28.9,11.8 9.1,-11.4 21.1,-19 34.9,-22.7 8.6,-2.3 13.5,-7 17.5,-14.4 7.5,-13.7 16.4,-27 30.6,-34.4 17.6,-9.1 37.6,-11.4 56.7,-16.1 7.2,-1.8 15.8,-0.1 18.8,8.8 2.3,7.1 -0.3,13.6 -7.2,16.8 -8.1,3.8 -16.8,6.5 -25.2,0.1 -4.1,-3.1 -4.1,-7.3 -0.9,-10.3 3.4,-3.2 8.2,-6.8 13,-2.6 6.1,5.4 -6.4,4.9 -3.4,10.1 5.5,1.5 10.1,-0.2 13.3,-5.1 1.3,-2.1 0.4,-4.4 -1.1,-6.1 -4,-4.4 -8.7,-5.2 -14.5,-3.9 -16.7,3.7 -45.1,27.5 -55.4,47 10.8,2.2 10.8,2.2 39.8,-13.6 -4,11.7 -12.7,19.3 -30.4,23 -11.2,2.3 -17.1,8 -22.2,17.8 -18.3,35.1 -38.3,69.2 -62.6,100.5 -6.2,8 -12.1,16.7 -22.8,20.3 z m 77.5,-144 c 22.2,-5.6 26.6,-30.3 43.6,-41.4 -23.6,4.1 -33.5,22.8 -43.6,41.4 z m -253,111 c -1.2,5.4 -0.3,9.4 5.5,10.4 7.5,1.2 17.1,-11.7 18.9,-25.4 0.4,-2.8 2,-6.4 -3.2,-6.7 -8.5,-0.4 -20,11.6 -21.2,21.7 z M 797.2,804.7 c -11.7,-0.2 -24.3,8.7 -24.3,17.3 0,5.9 3.1,8.8 9.2,8.4 7.1,-0.4 21.9,-16.1 21.1,-22.9 -0.5,-4 -3.5,-3 -6,-2.8 z m -54.2,-35 c 3.4,3.1 10.3,-1.6 11.1,3.9 1.4,10.4 -12,2.1 -14,10.5 8,1.5 15.2,1.7 20.6,-5.3 2.6,-3.3 2,-7 -0.9,-9.6 -5.4,-4.9 -11.1,-4.4 -16.8,0.5 z m -28.4,76.1 c 4.6,3.5 7.7,6.7 12.4,3.8 0.5,-0.3 0.5,-2.6 -0.1,-3.2 -3.2,-3.2 -6.8,-4.7 -12.3,-0.6 z"
   id="path36"
   inkscape:label="path36" />
		<path
   d="m 1530.5,856.3 c -29.3,-5.6 -56.8,-1 -82.2,10.6 24.6,16.8 55.3,22.9 77,42.6 14.6,13.3 31.5,21.9 46.8,33.3 5.2,3.9 11.2,6.9 10.6,15.4 -0.6,8.4 7.8,6.2 12.3,8 8.2,3.2 14.4,5.7 9,16.8 -1.7,3.5 -2.5,4.5 -5.6,4.5 -4.4,0 -9,-0.8 -14.9,6.3 5.4,4.2 11.4,8.6 17.1,13.4 2.4,2 4.7,5.3 2.2,8.1 -2.8,3.2 -5.9,0.7 -7.6,-2 -12.5,-20.4 -29.5,-19.4 -49.9,-13 -20.7,6.5 -42.6,8.4 -64.3,9.9 -7,0.5 -13.9,0.5 -23.1,-4 21.2,-3.3 40.4,-3.5 58.8,-8.2 21.9,-5.6 44.3,-9.2 65.5,-17.2 3.9,-1.5 10,-2.7 9.5,-7.9 -0.5,-5 -6.9,-4.6 -10.9,-6.1 -5.1,-1.9 -10.2,-0.7 -15.5,1 -35.6,10.8 -72.5,12.4 -109.3,14 -3.4,0.2 -7.2,0.7 -10.3,-4.4 31.5,-2.5 62.9,-0.9 94.7,-11 -10.4,-9.4 -9.4,-18.4 -1.8,-28 5,-6.4 2,-10.4 -5.2,-12.3 -7.8,-2.1 -15,-2.5 -23.1,0.8 -43.6,17.8 -88.9,30.5 -134.9,40.3 -6.5,1.4 -12.9,2.4 -19.9,-1.8 43.4,-11.6 87.5,-21.2 130.4,-38.9 -8.7,-7 -24.3,-7.1 -22.7,-22 0.9,-9.1 10.8,-7.3 18.3,-10.8 -10.5,-5.2 -19.2,-7.7 -29.4,-1.7 -9.8,5.8 -20.9,6.1 -32.2,4.1 8.7,-4.1 18.7,-4.5 27,-9.4 3.1,-1.8 6.9,-3.4 5.9,-7.7 -0.8,-3.5 -4.8,-3.3 -7.7,-4.3 -8.6,-2.7 -15.3,1 -22.4,5.3 -36.6,21.9 -73.9,42.6 -114.9,55.4 -6.1,1.9 -12.3,5.3 -19.8,1.4 40.7,-10.5 75.2,-32.9 110.8,-53.8 -30.7,-14.8 -65.9,-14 -94.8,-33.6 3.7,-5.5 10.8,-5.3 15.3,-9 3.3,-2.7 8.8,-4.8 6.9,-10 -2,-5.4 -7.7,-5.6 -12.6,-4.7 -10.5,2 -20.2,6.2 -30.4,12.6 5.1,4.2 11.9,2.5 18.2,10.2 -13.9,-2.7 -24.7,-4.7 -37.9,-7.3 11.8,-7.8 24.1,-10.3 31.5,-19.7 -2.2,-6.3 -9.3,-2.3 -12.8,-7.5 10.4,0.3 19.8,-5 29,4.4 4.6,4.6 12.6,0.3 18.7,-2.7 19.2,-9.6 38.9,-17.4 60.8,-18.2 10.2,-0.3 20.6,-0.4 29.8,5.1 6.2,3.6 10.5,8.7 8.6,16.3 -1.9,7.3 -7.9,8.7 -14.7,8.8 -6.9,0.1 -13.2,-1.1 -18.5,-6 -2.7,-2.6 -4.8,-5.4 -3.1,-9.4 1.8,-4.2 5.6,-3.7 9.2,-3.4 3.2,0.3 7.1,1.1 7.1,4.6 0.1,6.3 -6.1,0.1 -8.5,4 2.5,5.6 7.6,5.8 12.8,5 2.8,-0.5 5.3,-2.4 5,-5.3 -0.5,-5.2 -3.7,-8.9 -8.5,-11 -11.2,-5 -22.8,-4 -34,-1.2 -10.7,2.6 -21,6.9 -31.3,11.1 -3.6,1.4 -10.2,1.7 -8.6,7.7 1.3,4.9 5.7,6.9 11.7,5.9 5.1,-0.9 10.6,-0.1 15.9,0.7 4.5,0.7 8.7,3.1 9.5,8.1 0.7,4.4 -2.3,7.5 -5.9,9.6 -6.8,4.1 -13.7,8 -20.6,12 12.9,7.8 19.9,7.3 29.9,-2.2 9.6,-9.2 30.4,-12.2 39.8,-5.7 3,2.1 5.8,4.6 5.2,8.7 -0.3,2.3 -2.2,3.8 -4.7,4.1 -4.1,0.5 -7.3,-1 -7.7,-5.4 -0.8,-9.3 -7.5,-5.7 -12,-5.3 -4.9,0.4 -10,2.1 -9.9,8.5 0.1,5.8 4.6,8.2 9.4,9.8 10.2,3.4 19.5,2.2 29.1,-3.6 25.6,-15.4 52.7,-25.5 83.5,-20.4 7.3,1.1 14.6,2.5 21.3,7.7 z m -13.5,57.2 c -9.9,-9.5 -20.4,-14.7 -33.8,-11.6 -3.6,0.8 -7,2.1 -7.8,6.1 -1,4.8 2.2,7.4 5.9,9.2 11.9,5.7 23.6,6.1 35.7,-3.7 z m -196.6,-66.6 c 11,9.2 22.9,9.2 34.5,0.3 2.4,-1.8 5.4,-3.6 4.4,-7.4 -0.9,-3.4 -3.7,-4.6 -6.8,-5.7 -4.6,-1.5 -9.7,-1.1 -12.7,1.7 -5.7,5.3 -12.8,7.5 -19.4,11.1 z m 233.6,94.5 c -6.9,0.8 -10.5,6 -11.5,12 -0.9,5.3 3.6,10.5 8.4,9.2 6.6,-1.8 16.6,-3 17.2,-11.6 0.5,-7 -7.8,-8 -14.1,-9.6 z"
   id="path37" />
		<path
   d="m 1537.5,1124.1 c -19.7,-25.2 -42.9,-46.3 -67.8,-65.8 -47.4,-37 -103,-57.2 -159,-76 -76.7,-25.8 -156.1,-36.7 -236.7,-40.7 -47.1,-2.4 -94.3,-4.1 -141.3,-1.9 -121,5.5 -237.2,32 -346.4,85.3 -43,20.9 -78.6,51.6 -109.8,87.5 -4.1,4.7 -8.4,9.2 -12.6,13.7 -0.5,0.5 -1.5,0.4 -3.3,0.8 2.2,-10.9 8.5,-18.7 15.5,-25.9 54.5,-57 119.1,-97.3 194.2,-122 C 762,949 856,933.8 952.5,930.8 c 47.1,-1.5 94.1,-3.1 141.3,-0.5 82.6,4.7 161.8,25.1 240.6,48.8 68.8,20.7 128,56.5 178.9,106.6 16.4,16.2 22.3,25.3 24.2,38.4 z"
   id="path38"
   inkscape:label="path38" />
		<path
   d="m 1076.7,775.7 c 16.5,9.2 36.1,-2 53.3,8.4 2.3,1.4 6.9,-0.3 10.3,-1.1 6,-1.5 13.2,-1.4 16.6,2.5 12,13.8 21.8,5.3 31.4,-2.1 17,-13.1 34.2,-25.4 55.9,-29.7 6.6,-1.3 13.3,-2 19.8,0.1 7.8,2.6 13.3,7.5 12,16.6 -1.3,8.8 -7.6,13.2 -15.7,13.7 -8.6,0.6 -15.6,-3.7 -19.2,-11.7 -1.8,-4.2 0.8,-7.7 5.1,-9.3 4.2,-1.6 8.5,-3.2 12.5,0.4 1.5,1.3 1.4,3 0.5,4.8 -2.3,4.8 -7.2,-0.1 -10.4,2.3 2.8,7.9 8.7,7.2 14.4,6.2 4.3,-0.8 5.1,-4.2 4.5,-8.2 -0.9,-6.5 -5.8,-8.8 -11,-10 -7.6,-1.7 -15.2,0.4 -22,3.7 -11.6,5.6 -22.9,11.7 -33.9,18.3 -2.9,1.7 -9.8,3.3 -6.6,7.5 2.3,3.1 6.2,9.4 13,6.6 0.4,-0.2 0.8,-0.3 1.3,-0.4 8.5,-2.1 18.2,-3.8 21.6,6.5 3.4,10.3 -3.9,17.4 -12.6,22.3 -7.7,4.4 -15.9,5.7 -24.4,3.2 -2.9,-0.8 -6,-2.4 -5.7,-6.4 0.2,-2.4 1.3,-4.2 3.4,-5.3 3,-1.5 6.9,-1.7 8.6,1 8,12.7 12.8,2.7 17.8,-2.4 3,-3 3.1,-7.5 1.1,-11.2 -2.4,-4.4 -6.5,-3.5 -10.6,-2.5 -7,1.8 -13.1,4.8 -18.8,9.4 -6.3,5.1 -12.1,11.2 -22.7,14.3 3.8,-8.5 10.3,-12 14.3,-17.4 1.5,-2.1 3.8,-4.3 2.3,-7 -1.4,-2.5 -4.5,-2.9 -7.1,-2.7 -12.5,0.6 -23.2,4.8 -31.2,15 1.6,5.1 8.1,-0.2 9.5,5.2 -9.4,5 -19.7,3.2 -29.7,2.4 -11.5,-0.9 -23,-2.1 -34.4,-3.5 -15.6,-1.9 -27.5,2.9 -38.9,14.7 -24.7,25.5 -50.4,50.2 -81.3,68.6 -4.6,2.7 -9,7.2 -15.6,5.7 0.9,-7 6.5,-8.7 10.7,-11.5 38.9,-25.6 72.3,-57.4 103.4,-91.7 3.7,-4.1 12.4,-9.4 7.3,-14.3 -4.4,-4.3 -12.1,1.5 -16.8,6.6 -31.6,34 -67.1,63.5 -107.1,87.2 -6,3.6 -11.6,8.1 -19.8,7.2 33.8,-21.9 65.5,-46.2 95.4,-75.3 -9.1,-1.5 -17.2,1.7 -22.4,-6.6 -2.5,-4 -6.5,-0.7 -9.4,0.9 -5.5,3.1 -11.1,5.7 -17.5,5.7 -4.4,0 -9.3,0.3 -11.6,-4.7 -2,-4.5 -0.4,-8.6 2.9,-12.1 3.3,-3.5 6.6,-6.9 11,-11.5 -14.9,-2.1 -26.9,5 -39.8,7 11.7,-8.8 24.9,-12.5 39.3,-14.3 23,-2.8 45.8,-3.1 68.7,0.1 9.4,1.3 15.6,-2.4 22.2,-8.7 17.4,-16.9 37.5,-29.9 61.6,-35.4 5.5,-1.3 11.1,-2.5 17.5,1.5 -31.6,3.2 -54.3,20.8 -73,41.4 z m 0.1,31.4 c 14.8,0.7 28.4,4.4 37.9,-9.9 1.8,-2.7 4,-5.2 2.1,-8.3 -2,-3.2 -5.3,-4.6 -9.2,-3.4 -11.8,3.9 -22.9,8.7 -30.8,21.6 z m -22.4,-24.4 c -10.5,-1.7 -18.3,-1.7 -25.9,0.7 -5.6,1.8 -11.1,3.8 -12.3,10.5 -0.6,3.4 1.1,5.9 4.4,7.3 6.1,2.7 12.5,2.7 17.6,-1.5 5.3,-4.3 9.6,-10 16.2,-17 z m -34.1,-2.7 c -16.6,-2.3 -28.3,0.8 -37.8,10.8 -2.4,2.5 -5.4,5.4 -2.8,9.2 2,2.8 5.4,1.8 8.5,1.7 14.3,-0.3 19.6,-13.3 32.1,-21.7 z m 93.3,27.1 c 13,7 23.5,4.7 32.3,-6.1 2.3,-2.8 5.3,-5.7 2.9,-9.3 -2.2,-3.3 -6.1,-3.2 -9.7,-2.4 -10.9,2.6 -18.6,9.5 -25.5,17.8 z"
   id="path39" />
		<path
   d="m 497.1,848.9 c -38.7,29.6 -53.1,67.7 -48.1,114 3.5,-5.9 6.8,-12 10.6,-17.7 2.7,-4.2 6.3,-7.4 12.1,-6.2 6,1.2 9.1,4.9 10.6,10.5 3.6,13.3 -2.3,28.7 -13.2,34.9 -3.3,1.9 -6.6,3.3 -9.5,-0.1 -2.2,-2.5 -2.2,-5.8 -1.1,-8.8 1.5,-4.2 4.2,-5.3 8.1,-2.3 5.2,3.9 6.2,-1.3 7,-4.2 1.8,-6.6 1.9,-13.6 -4.6,-18 -3.9,-2.6 -6.7,0.8 -8.6,3.8 -6.1,9.5 -9.6,19.9 -9.9,31.3 -0.1,4 0,8 -0.3,12 -0.1,2.3 -1.5,4.6 -3.8,4.8 -2.7,0.3 -3.3,-2.2 -3.8,-4.5 -10.2,-52.4 -4.5,-100.8 35.7,-140.4 4.3,-4.3 8.6,-10 18.8,-9.1 z"
   id="path40" />
		<path
   d="m 516.2,949.7 c -9.9,4.4 -15.2,-0.6 -19.7,-7.9 -1.8,-2.9 -4.6,-6.7 -7.3,-7.2 -9,-1.4 -5.7,-6 -3.2,-10 3.1,-5 7.7,-6.3 12.1,-1.7 3,3.1 4.8,7.3 7.4,10.9 2.3,3.2 4.6,7.2 9.4,5.6 4.1,-1.3 3.9,-5.4 4.4,-8.9 2,-14.5 0.6,-15.9 -13.1,-13.2 -0.9,-5.3 3,-8 6.1,-10.8 3.2,-2.9 7,-6.1 11.9,-3.7 4.4,2.2 3.6,6.7 3.6,10.6 0.6,31.8 -9.1,62.1 -14.3,93 -1.8,10.4 -4.6,20.7 -6.9,31 -0.9,4.2 -2,8.3 -7.5,12.3 2.8,-34.7 14.1,-66.1 17.1,-100 z"
   id="path41" />
		<path
   d="m 397.5,1008.9 c -3.9,-2.9 -7.4,6.1 -10.4,0.1 -1.9,-3.9 2.3,-6.5 4.9,-8.6 13.8,-11.5 25,-26.1 41.4,-36.9 -3.1,46.1 -0.2,90.5 -3.6,134.9 -5.7,-24.3 -2,-49.3 -4.9,-74.5 -8.4,0.9 -11.9,16.7 -22,8.3 -7,-5.8 -4.3,-15.6 -5.4,-23.3 z m 25.6,-26 c -12.1,8.8 -21.4,16 -18.3,30.5 0.7,3.5 1.3,7.3 5.3,8.4 4.1,1.1 6.6,-2 8.9,-4.7 8.1,-9.7 4.4,-20.8 4.1,-34.2 z"
   id="path42" />
		<path
   d="m 1339.3,773.5 c -8.2,1.2 -13.5,2.2 -19,2.8 -22.6,2.8 -42.6,11.9 -60.8,25.1 -6.2,4.5 -15,10 -12.3,18.7 2.5,8 12.5,4.1 19.4,6.8 -15.3,3.4 -31.4,4.6 -43.2,17.8 -1.9,-6 1.2,-7.4 3,-8.5 6.4,-3.7 9.2,-7.2 8.4,-16 -0.8,-9.7 8.8,-16.1 16.3,-21.4 24.5,-17 52.1,-26.1 81.8,-28.6 1.3,0 2.4,1.1 6.4,3.3 z"
   id="path43" />
		<path
   d="m 1505.2,1049.4 c 5.3,-4.8 11.6,-3.6 17.5,-4.1 21.2,-1.8 42.6,-3.2 63.8,-4.5 3.1,-0.2 8,-1.9 8.6,3.3 0.5,3.9 -3.6,4.8 -6.6,5.2 -27.7,3.3 -55.4,4.2 -83.3,0.1 z"
   id="path44" />
		<path
   d="m 1214.2,848.7 c 7.7,0.5 9.4,6.4 12.8,10 7.4,8 16.3,10.5 26.6,7.7 2.9,-0.8 5.8,-2.7 6.1,-6.4 0.3,-3.3 -0.9,-6.3 -4,-7.8 -2.4,-1.1 -6.3,-3.1 -5.2,2.7 0.6,3.1 -0.9,4 -3.4,4.2 -2.4,0.1 -4.3,-0.8 -5.5,-3 -1.4,-2.5 0.1,-4.2 1.7,-5.8 3.7,-3.7 8.2,-5.5 13.3,-3.6 4.6,1.7 9.2,4.1 10.1,9.6 1,5.7 -2.7,9.1 -6.9,11.8 -16.3,10.4 -39.5,1 -45.6,-19.4 z"
   id="path45" />
		<path
   d="m 1486.7,868.7 c 7,-2.1 13.9,-4.3 20.9,-6.1 2.8,-0.7 6.7,-1.6 7.6,2.8 0.7,3.4 -2.6,3.8 -5,4.9 -7.6,3.5 -15.3,2.5 -23.5,-1.6 z"
   id="path46" />
		<path
   d="m 1432.5,843.4 c 10,-4.2 17.3,-7.4 24.8,-10.3 2.1,-0.8 4.4,-0.1 5.6,2.3 1.1,2.1 -0.4,3.7 -1.8,4.3 -8.1,3.8 -16.1,8.5 -28.6,3.7 z"
   id="path47" />
		<path
   d="m 576.4,832 c -7.1,6.2 -5.2,15.3 -8.1,23.2 -4.6,-8.5 -4,-17.2 -0.4,-26.1 0.9,-2.1 2.7,-3.8 5,-3.3 3.4,0.8 2.2,4.3 3,6.5 z"
   id="path48" />
		<path
   d="m 624,835.9 c 0.1,-6.6 1.6,-12.2 -2.4,-17.1 -2.1,-2.5 -0.9,-6.2 2.9,-7.3 4.3,-1.3 7.2,0.7 7.3,5.1 0,6.7 1.3,14 -7.8,19.3 z"
   id="path49" />
		<path
   d="m 576,832.4 c 3,-0.9 4.9,-6.5 8.8,-3.1 3.1,2.6 2.6,6.7 -0.3,9.4 -4.7,4.4 -5.3,10.5 -7.6,16.9 -5.6,-8.4 -1.5,-16 -0.6,-23.5 0.1,-0.1 -0.3,0.3 -0.3,0.3 z"
   id="path50" />
		<path
   d="m 636.3,826.9 c -3,-10.2 -2.3,-16.3 -1.8,-22.4 0.3,-4 3,-6.9 7,-6.1 6.2,1.4 1.8,5.3 1,8 -1.5,5.6 -3.3,11.1 -6.2,20.5 z"
   id="path51" />
		<path
   d="m 1042.4,755.6 c -8.6,-2.7 -2.4,-8 -1.3,-11.3 1.4,-4.4 4.8,-8.6 10.1,-9.4 1,-0.2 2.6,0.8 3.3,1.7 1.7,2.4 -0.1,3.9 -1.8,5.4 -4.6,3.9 -10.6,6.8 -10.8,14.1 z"
   id="path52" />
		<path
   d="m 643.9,824.1 c -2.7,-3.6 -1.3,-6.7 0.2,-9.9 2,-4.3 3.2,-9.3 8.6,-10.9 2,-0.6 3.5,0.9 4,2.7 1.6,5.7 -3.7,7.3 -6.7,10 -2.6,2.3 -1.9,7 -6.1,8.1 z"
   id="path53" />
		<path
   d="m 1025,762.5 c -2.1,-4.9 1.5,-7.5 2.2,-10.9 0.7,-3.1 -2.2,-7.4 2.3,-9.3 1,-0.4 3.7,0.8 4.3,1.9 1.9,3.8 1,7.8 -1.1,11.3 -1.8,3 -3.2,6.5 -7.7,7 z"
   id="path54" />
		<path
   d="m 561.2,866.6 c -5,-6.9 -4.2,-13.4 -9,-17 -1.8,-1.3 -1.3,-4.3 0.8,-5.6 2.6,-1.6 4.8,-0.2 6.5,2.2 3.8,5.5 3.3,11.4 1.7,20.4 z"
   id="path55" />
		<path
   d="m 838.5,821.7 c -0.7,5.2 -4,7.1 -8,7.9 -3.5,0.6 -6.2,-0.9 -6.3,-4.6 -0.1,-4.4 3.1,-5.8 6.9,-6 3,-0.2 6,-0.4 7.4,2.7 z"
   id="path56" />
		<path
   d="m 1042,756 c 4.7,-4 9.2,-8.1 14.1,-11.8 2.3,-1.7 5.8,-1 7.1,1.3 1.8,3.2 -1.3,4.9 -3.8,5.5 -5.4,1.3 -9.1,4.7 -13.2,8.1 -4.5,3.6 -2.1,-2.6 -3.7,-3.6 -0.1,0.1 -0.5,0.5 -0.5,0.5 z"
   id="path57" />
	</g>
</g>

</svg>
